<svg xmlns="http://www.w3.org/2000/svg" xmlns:xlink="http://www.w3.org/1999/xlink" width="64" height="64" version="1.1" viewbox="0 0 64 64"><defs><filter id="blur" width="200%" height="200%"><feGaussianBlur in="SourceAlpha" stdDeviation="3"/><feOffset dx="0" dy="4" result="offsetblur"/><feComponentTransfer><feFuncA slope=".05" type="linear"/></feComponentTransfer><feMerge><feMergeNode/><feMergeNode in="SourceGraphic"/></feMerge></filter><style type="text/css">@keyframes am-weather-snow{0%{-webkit-transform:translate(0,0);-moz-transform:translate(0,0);-ms-transform:translate(0,0);transform:translate(0,0)}33.33%{-webkit-transform:translate(-1.2px,2px);-moz-transform:translate(-1.2px,2px);-ms-transform:translate(-1.2px,2px);transform:translate(-1.2px,2px)}66.66%{-webkit-transform:translate(1.4px,4px);-moz-transform:translate(1.4px,4px);-ms-transform:translate(1.4px,4px);transform:translate(1.4px,4px);opacity:1}}.am-weather-snow-1{-webkit-animation-name:am-weather-snow;-moz-animation-name:am-weather-snow;-ms-animation-name:am-weather-snow;animation-name:am-weather-snow;-webkit-animation-duration:2s;-moz-animation-duration:2s;-ms-animation-duration:2s;animation-duration:2s;-webkit-animation-timing-function:linear;-moz-animation-timing-function:linear;-ms-animation-timing-function:linear;animation-timing-function:linear;-webkit-animation-iteration-count:infinite;-moz-animation-iteration-count:infinite;-ms-animation-iteration-count:infinite;animation-iteration-count:infinite}</style></defs><g id="snowy-4" filter="url(#blur)"><g><g><path fill="#57A0EE" stroke="#fff" stroke-linejoin="round" stroke-width="1.2" d="M47.7,35.4c0-4.6-3.7-8.2-8.2-8.2c-1,0-1.9,0.2-2.8,0.5c-0.3-3.4-3.1-6.2-6.6-6.2c-3.7,0-6.7,3-6.7,6.7c0,0.8,0.2,1.6,0.4,2.3 c-0.3-0.1-0.7-0.1-1-0.1c-3.7,0-6.7,3-6.7,6.7c0,3.6,2.9,6.6,6.5,6.7l17.2,0C44.2,43.3,47.7,39.8,47.7,35.4z" transform="translate(20,10) translate(-20,-11)"/></g><g class="am-weather-snow-1"><g transform="translate(20,10) translate(11,28)"><line x1="0" x2="0" y1="-2.5" y2="2.5" fill="none" stroke="#57A0EE" stroke-linecap="round" stroke-width="1.2" transform="translate(0,9), rotate(0)"/><line x1="0" x2="0" y1="-2.5" y2="2.5" fill="none" stroke="#57A0EE" stroke-linecap="round" stroke-width="1" transform="translate(0,9), rotate(45)"/><line x1="0" x2="0" y1="-2.5" y2="2.5" fill="none" stroke="#57A0EE" stroke-linecap="round" stroke-width="1" transform="translate(0,9), rotate(90)"/><line x1="0" x2="0" y1="-2.5" y2="2.5" fill="none" stroke="#57A0EE" stroke-linecap="round" stroke-width="1" transform="translate(0,9), rotate(135)"/></g></g></g></g></svg>