<svg xmlns="http://www.w3.org/2000/svg" xmlns:svg="http://www.w3.org/2000/svg" width="800" height="800"><style>@keyframes e4vknhyk86994_to__to{0%,18.75%,37.5%,56.25%,75%{transform:translate(0,0)}46.25%,8.75%{transform:translate(32px,0)}28.75%,66.25%{transform:translate(-32px,0)}}@keyframes e4vknhyk86995_to__to{0%,37.5%,75%{transform:translate(0,-1.013862px)}18.75%{transform:translate(32px,-1.013862px)}56.25%{transform:translate(-32px,-1.013862px)}}</style><g class="layer"><title>Layer 1</title><g id="svg_36"><path id="e4vknhyk86992" fill="#57A0EE" d="m559.564103,348.487179c-1.024,0 -2.048,0 -3.136,0.032c-14.912,-74.016 -79.776,-128.032 -156.864,-128.032c-64.032,0 -121.504,38.112 -146.688,96.032c-60.512,1.44 -109.312,51.104 -109.312,111.968c0,61.76 50.24,112 112,112l304,0c52.928,0 96,-43.072 96,-96c0,-52.928 -43.072,-96 -96,-96z"/><path id="e4vknhyk86994" fill="#B99C6B" d="m623.407075,571.994106l-416,0c-8.832,0 -16,7.168 -16,16c0,8.832 7.168,16 16,16l416,0c8.832,0 16,-7.168 16,-16c0,-8.832 -7.168,-16 -16,-16z"/><path id="e4vknhyk86995" fill="#B99C6B" d="m623.407075,634.980246l-416,0c-8.832,0 -16,7.168 -16,16c0,8.832 7.168,16 16,16l416,0c8.832,0 16,-7.168 16,-16c0,-8.832 -7.168,-16 -16,-16z"/></g></g></svg>