<svg xmlns="http://www.w3.org/2000/svg" xmlns:svg="http://www.w3.org/2000/svg" width="800" height="800"><style>@keyframes efumo7vt3k5h2_to__to{0%,75%{transform:translate(112px,-184px)}}@keyframes efumo7vt3k5h3_to__to{0%,50%{transform:translate(-46px,-184px)}75%{transform:translate(-46px,16px)}}@keyframes efumo7vt3k5h3_f_o{0%,75%{fill-opacity:1}77.5%{fill-opacity:0}}@keyframes efumo7vt3k5h4_to__to{0%,12.5%{transform:translate(270px,-184px)}37.5%{transform:translate(270px,16px)}}@keyframes efumo7vt3k5h4_f_o{0%,37.5%{fill-opacity:1}40%{fill-opacity:0}}@keyframes efumo7vt3k5h5_to__to{0%,62.5%{transform:translate(78.410453px,-184px)}87.5%{transform:translate(78.410453px,16px)}}@keyframes efumo7vt3k5h5_f_o{0%,87.5%{fill-opacity:1}90%{fill-opacity:0}}@keyframes efumo7vt3k5h6_to__to{0%{transform:translate(-238.431665px,-184px)}25%{transform:translate(-238.431665px,16px)}}@keyframes efumo7vt3k5h6_f_o{0%,25%{fill-opacity:1}27.5%{fill-opacity:0}}@keyframes efumo7vt3k5h7_to__to{0%,25%{transform:translate(-80.010606px,-184px)}50%{transform:translate(-80.010606px,16px)}}@keyframes efumo7vt3k5h7_f_o{0%,50%{fill-opacity:1}52.5%{fill-opacity:0}}#efumo7vt3k5h2_to{animation:efumo7vt3k5h2_to__to 4000ms linear infinite normal forwards}#efumo7vt3k5h3_to{animation:efumo7vt3k5h3_to__to 4000ms linear infinite normal forwards}#efumo7vt3k5h3{animation:efumo7vt3k5h3_f_o 4000ms linear infinite normal forwards}#efumo7vt3k5h4_to{animation:efumo7vt3k5h4_to__to 4000ms linear infinite normal forwards}#efumo7vt3k5h4{animation:efumo7vt3k5h4_f_o 4000ms linear infinite normal forwards}#efumo7vt3k5h5_to{animation:efumo7vt3k5h5_to__to 4000ms linear infinite normal forwards}#efumo7vt3k5h5{animation:efumo7vt3k5h5_f_o 4000ms linear infinite normal forwards}#efumo7vt3k5h6_to{animation:efumo7vt3k5h6_to__to 4000ms linear infinite normal forwards}#efumo7vt3k5h6{animation:efumo7vt3k5h6_f_o 4000ms linear infinite normal forwards}#efumo7vt3k5h7_to{animation:efumo7vt3k5h7_to__to 4000ms linear infinite normal forwards}#efumo7vt3k5h7{animation:efumo7vt3k5h7_f_o 4000ms linear infinite normal forwards}</style><g class="layer"><title>Layer 1</title><g id="efumo7vt3k5h2_to" transform="translate(112,-184)"><path id="efumo7vt3k5h2" fill="#57A0EE" d="m283.283897,580.809438c-10.496,15.136 -34.848,52.608 -34.848,73.088c0,26.464 21.536,48 48,48c26.464,0 48,-21.536 48,-48c0,-20.48 -24.352,-57.952 -34.848,-73.088c-5.952,-8.64 -20.352,-8.64 -26.304,0z"/></g><g id="efumo7vt3k5h3_to" transform="translate(-46,-184)"><path id="efumo7vt3k5h3" fill="#57A0EE" d="m283.283897,580.809438c-10.496,15.136 -34.848,52.608 -34.848,73.088c0,26.464 21.536,48 48,48c26.464,0 48,-21.536 48,-48c0,-20.48 -24.352,-57.952 -34.848,-73.088c-5.952,-8.64 -20.352,-8.64 -26.304,0z"/></g><g id="efumo7vt3k5h4_to" transform="translate(270,-184)"><path id="efumo7vt3k5h4" fill="#57A0EE" d="m283.283897,580.809438c-10.496,15.136 -34.848,52.608 -34.848,73.088c0,26.464 21.536,48 48,48c26.464,0 48,-21.536 48,-48c0,-20.48 -24.352,-57.952 -34.848,-73.088c-5.952,-8.64 -20.352,-8.64 -26.304,0z"/></g><g id="efumo7vt3k5h5_to" transform="translate(78.410453,-184)"><path id="efumo7vt3k5h5" fill="#7E8190" d="m543.827897,605.897438c-4.384,-7.68 -14.208,-10.304 -21.856,-5.856l-17.536,10.144l0,-20.288c0,-8.832 -7.168,-16 -16,-16c-8.832,0 -16,7.168 -16,16l0,20.288l-17.568,-10.144c-7.616,-4.416 -17.408,-1.792 -21.856,5.856c-4.416,7.648 -1.792,17.44 5.856,21.856l17.6,10.144l-17.6,10.144c-7.648,4.416 -10.272,14.208 -5.856,21.856c2.976,5.12 8.352,8 13.856,8c2.72,0 5.472,-0.672 8,-2.144l17.568,-10.144l0,20.288c0,8.832 7.168,16 16,16c8.832,0 16,-7.168 16,-16l0,-20.288l17.568,10.144c2.528,1.472 5.28,2.144 8,2.144c5.504,0 10.912,-2.88 13.856,-8c4.448,-7.648 1.824,-17.44 -5.856,-21.856l-17.6,-10.144l17.6,-10.144c7.648,-4.416 10.272,-14.208 5.824,-21.856z"/></g><g id="efumo7vt3k5h6_to" transform="translate(-238.431665,-184)"><path id="efumo7vt3k5h6" fill="#7E8190" d="m543.827897,605.897438c-4.384,-7.68 -14.208,-10.304 -21.856,-5.856l-17.536,10.144l0,-20.288c0,-8.832 -7.168,-16 -16,-16c-8.832,0 -16,7.168 -16,16l0,20.288l-17.568,-10.144c-7.616,-4.416 -17.408,-1.792 -21.856,5.856c-4.416,7.648 -1.792,17.44 5.856,21.856l17.6,10.144l-17.6,10.144c-7.648,4.416 -10.272,14.208 -5.856,21.856c2.976,5.12 8.352,8 13.856,8c2.72,0 5.472,-0.672 8,-2.144l17.568,-10.144l0,20.288c0,8.832 7.168,16 16,16c8.832,0 16,-7.168 16,-16l0,-20.288l17.568,10.144c2.528,1.472 5.28,2.144 8,2.144c5.504,0 10.912,-2.88 13.856,-8c4.448,-7.648 1.824,-17.44 -5.856,-21.856l-17.6,-10.144l17.6,-10.144c7.648,-4.416 10.272,-14.208 5.824,-21.856z"/></g><g id="efumo7vt3k5h7_to" transform="translate(-80.010606,-184)"><path id="efumo7vt3k5h7" fill="#7E8190" d="m543.827897,605.897438c-4.384,-7.68 -14.208,-10.304 -21.856,-5.856l-17.536,10.144l0,-20.288c0,-8.832 -7.168,-16 -16,-16c-8.832,0 -16,7.168 -16,16l0,20.288l-17.568,-10.144c-7.616,-4.416 -17.408,-1.792 -21.856,5.856c-4.416,7.648 -1.792,17.44 5.856,21.856l17.6,10.144l-17.6,10.144c-7.648,4.416 -10.272,14.208 -5.856,21.856c2.976,5.12 8.352,8 13.856,8c2.72,0 5.472,-0.672 8,-2.144l17.568,-10.144l0,20.288c0,8.832 7.168,16 16,16c8.832,0 16,-7.168 16,-16l0,-20.288l17.568,10.144c2.528,1.472 5.28,2.144 8,2.144c5.504,0 10.912,-2.88 13.856,-8c4.448,-7.648 1.824,-17.44 -5.856,-21.856l-17.6,-10.144l17.6,-10.144c7.648,-4.416 10.272,-14.208 5.824,-21.856z"/></g><path id="efumo7vt3k5h8" fill="#57A0EE" d="m568.435897,349.897438c-1.024,0 -2.048,0 -3.136,0.032c-14.912,-74.016 -79.776,-128.032 -156.864,-128.032c-64.032,0 -121.504,38.112 -146.688,96.032c-60.512,1.44 -109.312,51.104 -109.312,111.968c0,61.76 50.24,112 112,112l304,0c52.928,0 96,-43.072 96,-96c0,-52.928 -43.072,-96 -96,-96z"/></g></svg>